<?xml version="1.0" encoding="utf-8"?>
<!-- Generator: Adobe Illustrator 16.0.0, SVG Export Plug-In . SVG Version: 6.00 Build 0)  -->
<!DOCTYPE svg PUBLIC "-//W3C//DTD SVG 1.1//EN" "http://www.w3.org/Graphics/SVG/1.1/DTD/svg11.dtd">
<svg version="1.1" id="Layer_1" xmlns="http://www.w3.org/2000/svg" xmlns:xlink="http://www.w3.org/1999/xlink" x="0px" y="0px"
	 width="72px" height="72px" viewBox="0 0 72 72" enable-background="new 0 0 72 72" xml:space="preserve">
<g id="Layer_2">
</g>
<g>
	<g>
		<path fill="#666666" d="M63.374,71.514c-0.266,0-0.516-0.105-0.704-0.294l-3.293-3.293H13.376v-5.976H7.4V0.199h47.41v18.512
			l5.976,5.975v41.832l3.293,3.294c0.39,0.389,0.39,1.021,0,1.407C63.891,71.408,63.641,71.514,63.374,71.514z M15.368,65.935
			h42.017l-9.45-9.45l-0.139,0.119c-2.516,2.123-5.703,3.294-8.979,3.294c-7.685,0-13.937-6.254-13.937-13.939
			c0-7.685,6.252-13.937,13.937-13.937c7.686,0,13.938,6.252,13.938,13.937c0,3.276-1.17,6.464-3.294,8.979l-0.118,0.139l9.45,9.451
			V26.095H40.865V8.167H15.368V65.935z M9.392,59.959h3.984V6.175h28.897l10.543,10.544V2.191H9.392V59.959z M38.816,34.013
			c-6.586,0-11.945,5.358-11.945,11.945s5.358,11.946,11.945,11.946c6.587,0,11.946-5.359,11.946-11.946
			S45.403,34.013,38.816,34.013z M42.857,24.103h14.527L42.857,9.575V24.103z"/>
		<path fill="#FFFFFF" d="M54.61,0.398v18.23v0.165l0.116,0.117l5.382,5.383l0.479,0.477v41.667v0.166l0.116,0.116l3.234,3.234
			c0.311,0.312,0.311,0.817,0,1.126c-0.15,0.152-0.35,0.233-0.563,0.233c-0.212,0-0.411-0.081-0.563-0.233l-3.235-3.234
			l-0.116-0.116h-0.165H13.575v-5.579v-0.396h-0.398H7.599V0.398H54.61 M9.193,60.159h0.398h3.585h0.398V59.76V6.375h28.617
			l0.478,0.477l9.667,9.668l0.68,0.68v-0.961V2.39V1.992h-0.397H9.591H9.193V2.39v57.37V60.159 M15.169,66.135h0.398h41.337h0.961
			l-0.68-0.681l-8.98-8.98l-0.259-0.259l-0.28,0.236c-2.479,2.093-5.621,3.246-8.85,3.246c-7.575,0-13.738-6.163-13.738-13.739
			c0-7.575,6.163-13.738,13.738-13.738c7.576,0,13.739,6.163,13.739,13.738c0,3.229-1.153,6.372-3.247,8.85l-0.235,0.28l0.259,0.259
			l8.98,8.98l0.68,0.68v-0.961V26.294v-0.398h-0.398H41.064V8.366V7.968h-0.398H15.567h-0.398v0.398v53.783v3.587V66.135
			 M42.659,24.302h0.396h13.849h0.961l-0.68-0.68l-1.896-1.896L43.338,9.775l-0.679-0.68v0.962v13.847V24.302 M38.816,58.104
			c6.697,0,12.145-5.449,12.145-12.146c0-6.696-5.447-12.145-12.145-12.145c-6.696,0-12.145,5.448-12.145,12.145
			C26.672,52.655,32.12,58.104,38.816,58.104 M55.008,0H7.2v62.149h5.976v5.977h46.118l3.235,3.235
			c0.233,0.234,0.54,0.351,0.845,0.351c0.307,0,0.612-0.116,0.847-0.351c0.467-0.467,0.467-1.223,0-1.689l-3.236-3.235V24.604
			l-0.595-0.594l-5.382-5.382V0L55.008,0z M9.591,59.76V2.39h43.027v13.848L42.95,6.569l-0.595-0.593H13.176V59.76H9.591
			L9.591,59.76z M15.567,65.736v-3.587V8.366h25.099v17.928h17.928v37.752l-8.98-8.981c2.079-2.461,3.341-5.637,3.341-9.106
			c0-7.795-6.343-14.136-14.138-14.136c-7.794,0-14.136,6.341-14.136,14.136s6.342,14.138,14.136,14.138
			c3.47,0,6.645-1.262,9.106-3.34l8.981,8.98H15.567L15.567,65.736z M43.056,23.904V10.057l11.952,11.952l1.896,1.895H43.056
			L43.056,23.904z M38.816,57.706c-6.476,0-11.746-5.271-11.746-11.748c0-6.476,5.27-11.745,11.746-11.745
			c6.478,0,11.747,5.27,11.747,11.745C50.563,52.436,45.293,57.706,38.816,57.706L38.816,57.706z"/>
	</g>
	<g>
		<path fill="#EF4123" d="M31.851,42.827c-0.549,0-0.995-0.446-0.995-0.995c0-0.55,0.446-0.995,0.995-0.995h7.172
			c0.549,0,0.995,0.445,0.995,0.995c0,0.549-0.446,0.995-0.995,0.995H31.851z"/>
		<path fill="#FFFFFF" d="M39.023,41.035c0.438,0,0.797,0.357,0.797,0.797c0,0.438-0.358,0.797-0.797,0.797h-7.172
			c-0.439,0-0.796-0.358-0.796-0.797c0-0.439,0.357-0.797,0.796-0.797H39.023 M39.023,40.636h-7.172
			c-0.661,0-1.195,0.535-1.195,1.196c0,0.66,0.534,1.196,1.195,1.196h7.172c0.66,0,1.193-0.536,1.193-1.196
			C40.217,41.171,39.684,40.636,39.023,40.636L39.023,40.636z"/>
	</g>
	<g>
		<path fill="#EF4123" d="M31.851,49.999c-0.549,0-0.995-0.447-0.995-0.995c0-0.551,0.446-0.997,0.995-0.997h14.342
			c0.549,0,0.997,0.446,0.997,0.997c0,0.548-0.448,0.995-0.997,0.995H31.851z"/>
		<path fill="#FFFFFF" d="M46.193,48.207c0.439,0,0.797,0.356,0.797,0.797c0,0.439-0.357,0.797-0.797,0.797H31.851
			c-0.439,0-0.796-0.357-0.796-0.797c0-0.44,0.357-0.797,0.796-0.797H46.193 M46.193,47.808H31.851
			c-0.661,0-1.195,0.534-1.195,1.196c0,0.66,0.534,1.194,1.195,1.194h14.342c0.661,0,1.195-0.534,1.195-1.194
			C47.389,48.342,46.854,47.808,46.193,47.808L46.193,47.808z"/>
	</g>
</g>
</svg>
