<?xml version="1.0" encoding="utf-8"?>
<!-- Generator: Adobe Illustrator 16.0.0, SVG Export Plug-In . SVG Version: 6.00 Build 0)  -->
<!DOCTYPE svg PUBLIC "-//W3C//DTD SVG 1.1//EN" "http://www.w3.org/Graphics/SVG/1.1/DTD/svg11.dtd">
<svg version="1.1" xmlns="http://www.w3.org/2000/svg" xmlns:xlink="http://www.w3.org/1999/xlink" x="0px" y="0px" width="360px"
	 height="360px" viewBox="0 0 360 360" enable-background="new 0 0 360 360" xml:space="preserve">
<g id="Layer_1">
	<path fill="#676767" d="M180.001,358.75c-3.377,0-6.023-2.646-6.023-6.023v-33.006l-1.192-0.056
		c-34.646-1.584-67.339-16.008-92.059-40.614c-24.711-24.598-39.291-57.215-41.052-91.841l-0.061-1.187H7.274
		c-3.377,0-6.023-2.646-6.023-6.023s2.646-6.023,6.023-6.023h32.339l0.061-1.187c1.762-34.635,16.331-67.251,41.024-91.841
		c24.71-24.606,57.414-39.03,92.086-40.614l1.193-0.054V7.273c0-3.377,2.646-6.023,6.022-6.023c3.378,0,6.022,2.646,6.022,6.023
		V40.34l1.181,0.066c34.38,1.938,66.751,16.504,91.149,41.016c24.406,24.52,38.817,56.968,40.578,91.368l0.062,1.187h33.733
		c3.378,0,6.023,2.646,6.023,6.022c0,3.378-2.646,6.022-6.023,6.022h-33.733l-0.062,1.188
		c-1.761,34.398-16.172,66.848-40.578,91.367c-24.398,24.512-56.771,39.078-91.149,41.016l-1.181,0.066v33.066
		C186.024,356.104,183.379,358.75,180.001,358.75z M179.267,52.236c-33.543,0-65.25,12.961-89.277,36.495
		c-23.981,23.489-37.623,54.848-38.414,88.301l-0.007,0.31l0.139,0.278c0.346,0.692,0.529,1.517,0.529,2.38
		c0,0.73-0.19,1.559-0.565,2.459l-0.102,0.244l0.006,0.265c0.754,33.445,14.387,64.806,38.386,88.302
		c24.037,23.533,55.752,36.494,89.305,36.494c70.449,0,127.764-57.313,127.764-127.764S249.716,52.236,179.267,52.236z"/>
	<g>
		<g>
			<path fill="#2868A1" stroke="#FFFFFF" stroke-width="2" stroke-miterlimit="10" d="M180,125.701
				c-24.612,0-42.391,18.343-45.21,38.046c-1.758,13.135,2.488,25.938,11.311,35.624c7.762,8.292,12.008,19.371,12.008,30.781
				l-0.033,17.979c0,7.264,6.003,13.135,13.434,13.135h17.314c7.43,0,13.434-5.871,13.434-13.135l0.033-17.979
				c0-11.742,3.881-22.489,11.311-30.085c8.127-8.292,12.372-19.006,12.372-30.085C225.939,145.404,205.076,125.701,180,125.701
				L180,125.701z M195.523,248.131c0,3.449-2.819,6.235-6.368,6.235H171.84c-3.549,0-6.368-2.753-6.368-6.235v-7.961h30.019v7.961
				H195.523z M208.658,195.225c-8.822,8.989-13.434,21.428-13.434,34.928v3.118h-30.019v-3.118c0-12.804-5.307-25.573-14.13-35.259
				c-7.762-8.293-10.946-19.007-9.553-30.085c2.487-16.585,17.911-32.175,38.51-32.175c21.561,0,38.875,16.95,38.875,37.349
				C218.908,179.304,215.358,188.292,208.658,195.225z"/>
			
				<rect x="176.451" y="98.734" fill="#2868A1" stroke="#FFFFFF" stroke-width="2" stroke-miterlimit="10" width="7.064" height="16.585"/>
			<polygon fill="#2868A1" stroke="#FFFFFF" stroke-width="2" stroke-miterlimit="10" points="222.822,130.71 227.765,135.652 
				239.871,124.01 234.896,119.067 			"/>
			
				<rect x="243.951" y="173.433" fill="#2868A1" stroke="#FFFFFF" stroke-width="2" stroke-miterlimit="10" width="17.314" height="6.933"/>
			
				<rect x="98.734" y="173.433" fill="#2868A1" stroke="#FFFFFF" stroke-width="2" stroke-miterlimit="10" width="17.314" height="6.933"/>
			<polygon fill="#2868A1" stroke="#FFFFFF" stroke-width="2" stroke-miterlimit="10" points="124.972,119.034 119.996,123.977 
				132.103,135.619 137.045,130.677 			"/>
		</g>
	</g>
</g>
<g id="Layer_2">
</g>
</svg>
