<?xml version="1.0" encoding="utf-8"?>
<!-- Generator: Adobe Illustrator 16.0.0, SVG Export Plug-In . SVG Version: 6.00 Build 0)  -->
<!DOCTYPE svg PUBLIC "-//W3C//DTD SVG 1.1//EN" "http://www.w3.org/Graphics/SVG/1.1/DTD/svg11.dtd">
<svg version="1.1" xmlns="http://www.w3.org/2000/svg" xmlns:xlink="http://www.w3.org/1999/xlink" x="0px" y="0px" width="360px"
	 height="360px" viewBox="0 0 360 360" enable-background="new 0 0 360 360" xml:space="preserve">
<g id="Layer_1">
	<g>
		<polygon fill="#286AA3" points="165.854,185.889 197.703,185.889 191.067,211.543 197.703,311.953 181.778,326.551 
			165.854,313.281 172.489,213.754 		"/>
		<g>
			<path fill="#676767" stroke="#FFFFFF" stroke-width="3" stroke-miterlimit="10" d="M10.638,243.416v-62.819
				c0-8.839,6.21-16.482,14.57-18.154l16.959-4.777l9.793-2.866c1.195-0.239,2.15-1.434,2.15-2.628v-11.465l-0.478-0.479
				c-5.017-3.821-8.122-9.793-8.838-16.003c-0.239-2.15-0.239-3.822-0.478-4.777h-1.911c-1.911,0-3.583-1.434-3.822-3.106
				l-1.672-10.032c-0.478-2.867,1.911-5.494,4.778-5.494l0.478-18.393c0-11.227,9.315-20.543,20.781-20.543h13.376
				c11.465,0,20.781,9.077,20.781,20.543l0.478,18.393c2.866,0,5.255,2.627,4.777,5.494l-1.433,9.554
				c-0.239,1.911-1.912,3.106-3.822,3.106h-1.911c-0.238,0.955-0.238,2.866-0.478,4.776c-0.478,6.211-3.822,12.183-8.838,16.004
				l-0.717,0.478v11.466c0,1.433,0.956,2.389,2.15,2.627l7.644,2.149c4.299-2.626,8.837-4.777,13.854-5.731h0.238l-14.57-4.061
				v-2.15c5.016-5.016,8.121-11.227,9.077-17.915c3.344-1.911,5.972-5.494,6.449-9.315l1.433-9.555
				c0.717-4.061-0.478-8.36-3.344-11.465c-0.478-0.478-0.956-1.194-1.433-1.433l0.239-12.421c0-16.482-13.616-29.858-30.336-29.858
				H63.188c-16.72,0-30.335,13.375-30.335,29.858l-0.239,12.421c-0.478,0.478-0.955,0.956-1.671,1.671
				c-2.627,3.106-3.822,7.405-3.344,11.466l1.433,9.555c0.717,4.061,3.105,7.405,6.449,9.554c0.956,6.927,4.3,13.137,9.077,17.915
				v1.911l-5.016,1.433l-16.721,4.777c-12.66,2.867-21.736,14.332-21.736,27.471v62.819v5.496l4.777,2.865l68.315,40.369v-10.988
				L10.638,243.416z"/>
			<path fill="#676767" stroke="#FFFFFF" stroke-width="3" stroke-miterlimit="10" d="M337.403,153.366l-21.736-6.21v-2.15
				c4.776-4.778,8.12-11.227,9.076-17.915c3.344-1.911,5.731-5.255,6.449-9.554l1.433-9.555c0.717-4.061-0.477-8.36-3.343-11.466
				c-0.479-0.478-0.957-1.194-1.435-1.671l-0.237-12.421c0-16.482-13.616-29.858-30.336-29.858h-13.377
				c-16.723,0-30.336,13.375-30.336,29.858l-0.238,12.421c-0.479,0.478-0.957,0.956-1.434,1.433
				c-2.629,3.105-3.822,7.404-3.345,11.465l1.435,9.555c0.715,4.061,3.104,7.644,6.447,9.555c0.957,6.688,4.301,13.137,9.077,17.915
				v2.149l-5.017,1.433l-9.075,2.627l0,0c5.015,1.194,9.792,3.106,14.092,5.972l7.166-2.149c1.195-0.239,2.147-1.434,2.147-2.628
				v-11.465l-0.715-0.479c-5.017-3.821-8.36-9.793-8.838-16.003c-0.238-2.15-0.478-4.061-0.478-4.777h-1.912
				c-1.911,0-3.582-1.434-3.821-3.106l-1.433-9.554c-0.479-2.867,1.91-5.494,4.776-5.494l0.478-18.393
				c0-11.227,9.315-20.304,20.781-20.304h13.376c11.467,0,20.781,9.077,20.781,20.304l0.479,18.393c2.866,0,5.255,2.627,4.778,5.494
				l-1.435,9.554c-0.239,1.912-1.911,3.106-3.822,3.106h-1.91c-0.238,0.955-0.238,2.866-0.479,4.777
				c-0.479,6.21-3.822,12.182-8.838,16.003l-0.718,0.479v11.465c0,1.195,0.957,2.389,2.149,2.628l26.754,7.644
				c8.6,1.672,14.57,9.315,14.57,18.154v62.819l-63.299,37.264v10.988l68.075-40.129l4.777-2.867v-5.492v-62.345
				C359.378,167.698,350.302,156.232,337.403,153.366z"/>
			<path fill="#676767" stroke="#FFFFFF" stroke-width="3" stroke-miterlimit="10" d="M150.134,60.925
				c6.688,0,12.422-3.583,15.526-9.555l0.239-0.478c5.972,6.21,14.332,9.793,23.168,9.793h26.035v-8.599v-0.955h-26.035
				c-8.121,0-15.765-4.539-19.586-11.466l-4.299-7.882l-7.882,15.048c-1.433,2.627-4.062,4.3-7.167,4.3h-4.538l-0.238,9.793l0,0
				L150.134,60.925L150.134,60.925z"/>
			<path fill="#676767" stroke="#FFFFFF" stroke-width="3" stroke-miterlimit="10" d="M249.979,158.142l-36.547-10.51v-2.866v-6.21
				c8.123-7.405,13.139-17.438,14.094-28.425c5.017-1.911,8.6-6.45,9.555-11.943l2.391-14.57c0.715-4.777-0.719-9.794-3.824-13.376
				c-0.955-1.194-2.147-2.15-3.344-3.105l-0.478-21.259c0-22.214-18.394-40.368-41.085-40.368h-20.303
				c-22.691,0-41.084,18.153-41.084,40.368l-0.478,21.259c-1.194,0.955-2.388,1.911-3.344,3.105
				c-3.105,3.583-4.538,8.599-3.821,13.376l2.389,14.57c0.955,5.494,4.539,9.793,9.554,11.704
				c0.956,10.988,6.211,21.021,14.093,28.425v9.077L136.52,150.5l-25.32,7.166c-17.198,3.583-29.38,19.109-29.38,36.786v95.066
				v5.496l4.777,2.865l90.768,53.744l5.017,2.867l4.776-2.867l88.38-53.744l4.539-2.865v-5.496V194.93
				C279.358,177.251,266.938,161.964,249.979,158.142z M269.806,289.996l-88.38,53.744l-90.769-53.744V194.93
				c0-13.377,9.315-24.843,22.214-27.471l25.797-7.404l14.81-4.3c1.91-0.478,3.344-2.15,3.344-4.061v-5.972l0.717,0.478
				c5.016,3.344,10.749,5.255,16.72,5.255h4.777V141.9h-4.777c-4.062,0-7.882-1.194-11.228-3.583l-6.209-4.299l0,0l-0.955-0.716
				c-7.644-5.972-12.421-14.81-13.376-24.364c-0.239-3.105-0.478-5.972-0.717-7.405h-3.105c-2.867,0-5.255-2.15-5.733-4.777
				l-2.389-14.571c-0.717-4.299,2.627-8.36,7.166-8.36l0.716-27.947c0-17.198,14.093-31.053,31.53-31.053h20.304
				c17.437,0,31.529,13.855,31.529,31.053l0.716,27.947c4.538,0,7.883,3.822,7.166,8.36l-2.388,14.571
				c-0.479,2.867-2.867,4.777-5.732,4.777h-3.106c-0.237,1.433-0.478,4.299-0.717,7.405c-0.715,9.554-5.731,18.393-13.375,24.364
				l-0.955,0.716v10.749v6.927v17.915h9.555v-12.183l34.158,9.794c12.896,2.627,22.214,14.092,22.214,27.469v95.307H269.806
				L269.806,289.996z"/>
			<path fill="#676767" stroke="#FFFFFF" stroke-width="3" stroke-miterlimit="10" d="M195.995,209.979l6.449-22.693
				c0.478-1.432,0-3.104-0.717-4.299c-0.955-1.195-2.389-1.912-3.82-1.912h-32.008c-1.434,0-2.867,0.717-3.822,1.912
				c-0.955,1.193-1.194,2.627-0.717,4.299l6.449,22.693l-8.838,101.754c-0.238,1.672,0.479,3.105,1.672,4.062l17.676,14.57
				c0.955,0.717,1.912,1.193,3.105,1.193s2.148-0.479,3.104-1.193l17.678-14.57c1.193-0.957,1.91-2.629,1.672-4.062L195.995,209.979
				z M191.457,190.867l-3.821,13.854h-11.227l-4.061-13.854H191.457z M181.664,320.57l-12.899-10.51l8.122-95.783h9.792
				l7.645,95.783L181.664,320.57z"/>
		</g>
	</g>
</g>
<g id="Layer_2">
</g>
</svg>
