<?xml version="1.0" encoding="utf-8"?>
<!-- Generator: Adobe Illustrator 16.0.0, SVG Export Plug-In . SVG Version: 6.00 Build 0)  -->
<!DOCTYPE svg PUBLIC "-//W3C//DTD SVG 1.1//EN" "http://www.w3.org/Graphics/SVG/1.1/DTD/svg11.dtd">
<svg version="1.1" xmlns="http://www.w3.org/2000/svg" xmlns:xlink="http://www.w3.org/1999/xlink" x="0px" y="0px" width="360px"
	 height="360px" viewBox="0 0 360 360" enable-background="new 0 0 360 360" xml:space="preserve">
<g id="Layer_1">
	<path fill="#676767" stroke="#676867" stroke-miterlimit="10" d="M304.667,277.719c-1.586-5.926-7.336-10.064-13.979-10.064
		c-2.359,0-4.668,0.526-6.868,1.567c-8.5,4.008-39.604,18.604-52.496,24.309c0.011-0.236,0.038-0.468,0.038-0.708l-0.287,0.006
		c-1.222-7-7.295-12.357-14.643-12.357h-28.966c-8.249,0-15.708-2.293-23.609-4.724c-8.338-2.562-16.961-5.218-26.953-5.218
		c-16.69,0-24.721,4.124-35.84,9.835c-4.596,2.362-9.758,4.998-16.319,7.769v-7.662H54.924v17.581v61.257V360h29.822v-10.922
		c14.708-4.115,31.604-6.375,49.686-6.473l2.867-0.01c18.299,0,28.282,1.067,41.085,4.384c7.128,1.85,14.169,1.174,21.703-2.097
		c25.727-11.178,68.251-33.444,92.894-47.674C306.196,289.578,305.555,281.037,304.667,277.719z M79.779,355.024H59.896v-69.583
		h19.88v69.583H79.779z M290.499,292.899c-24.528,14.162-66.825,36.315-92.388,47.421c-6.504,2.819-12.432,3.414-18.479,1.846
		c-13.265-3.439-23.552-4.544-42.331-4.544l-2.895,0.007c-17.962,0.099-34.822,2.296-49.657,6.3v-50.415
		c7.632-3.118,13.452-6.097,18.589-8.731c10.887-5.591,18.079-9.283,33.57-9.283c9.243,0,17.501,2.541,25.491,4.997
		c7.903,2.43,16.074,4.941,25.07,4.941h28.969c5.081,0,9.239,3.847,9.824,8.773c-0.669,6.224-5.89,11.108-12.292,11.108h-69.591
		v4.971h69.588c7.239,0,13.453-4.452,16.071-10.786c11.37-4.806,55.464-25.581,55.906-25.792c1.532-0.724,3.13-1.089,4.747-1.089
		c4.326,0,8.185,2.682,9.175,6.378C301.118,283.678,297.704,288.743,290.499,292.899z"/>
	<path fill="#676767" stroke="#676867" stroke-miterlimit="10" d="M53.921,74.555c1.379,5.979,6.981,10.315,13.619,10.547
		c2.357,0.082,4.684-0.364,6.919-1.327c8.634-3.708,40.229-17.21,53.312-22.461c-0.019,0.236-0.055,0.466-0.063,0.707l0.288,0.003
		c0.977,7.038,6.859,12.604,14.202,12.86l28.949,1.011c8.243,0.288,15.618,2.841,23.429,5.545
		c8.244,2.852,16.769,5.807,26.754,6.155c16.68,0.583,24.851-3.259,36.162-8.578c4.675-2.201,9.926-4.655,16.579-7.193l-0.267,7.656
		l29.804,1.041l0.613-17.57l2.138-61.22l0.024-0.691L276.58,0l-0.381,10.915c-14.843,3.599-31.807,5.268-49.882,4.734l-2.865-0.09
		c-18.288-0.639-28.229-2.054-40.907-5.815c-7.059-2.097-14.119-1.668-21.763,1.338c-26.1,10.273-69.376,31.042-94.5,44.403
		C52.808,62.65,53.15,71.208,53.921,74.555z M281.371,5.145l19.87,0.694l-2.429,69.541l-19.867-0.693l2.429-69.541L281.371,5.145z
		 M68.611,59.878c25.007-13.297,68.052-33.961,93.986-44.167c6.599-2.591,12.543-2.978,18.532-1.2
		c13.137,3.901,23.38,5.364,42.146,6.02l2.894,0.093c17.955,0.529,34.882-1.079,49.848-4.563l-1.76,50.384
		c-7.736,2.851-13.657,5.625-18.884,8.078c-11.074,5.207-18.392,8.646-33.873,8.105c-9.238-0.322-17.402-3.15-25.301-5.883
		c-7.813-2.705-15.893-5.5-24.883-5.813l-28.952-1.011c-5.077-0.177-9.098-4.167-9.511-9.111
		c0.886-6.196,6.273-10.896,12.671-10.673l69.55,2.429l0.173-4.967l-69.545-2.429c-7.234-0.252-13.6,3.98-16.438,10.219
		c-11.53,4.406-56.323,23.629-56.772,23.824c-1.556,0.669-3.166,0.979-4.783,0.922c-4.323-0.151-8.085-2.965-8.946-6.694
		C57.677,68.724,61.265,63.781,68.611,59.878z"/>
	<g>
		<path fill="none" stroke="#FFFFFF" stroke-miterlimit="10" d="M183.035,143.407c0,4.322,0,8.644,0,12.966
			c0,6.949,0,13.897,0,20.846c2.411,0,4.823,0,7.234,0c7.953,0,15.906,0,23.86,0c-0.063-4.1-0.274-8.197-0.681-12.279
			c-0.124-1.25-0.259-2.498-0.417-3.743c-0.036-0.284-0.071-0.568-0.107-0.854c-0.002-0.018-0.004-0.028-0.006-0.044
			c-0.006-0.038-0.018-0.123-0.041-0.288c-0.079-0.562-0.158-1.124-0.246-1.684c-0.337-2.198-0.721-4.388-1.167-6.566
			c-0.575-2.806-1.25-5.593-2.024-8.353c-6.809,0-13.618,0-20.428,0C187.021,143.407,185.027,143.407,183.035,143.407z"/>
		<path fill="none" stroke="#FFFFFF" stroke-miterlimit="10" d="M155.992,231.092c1.557,3.232,3.318,6.378,5.391,9.311
			c0.269,0.381,0.542,0.76,0.821,1.134c0.092,0.123,0.185,0.246,0.277,0.369c0.036,0.046,0.07,0.089,0.09,0.115
			c0.477,0.602,0.963,1.192,1.471,1.769c1.003,1.139,2.061,2.232,3.194,3.242c0.305,0.271,0.612,0.539,0.925,0.797
			c0.089,0.074,0.363,0.29,0.523,0.417c0.471,0.354,0.947,0.703,1.439,1.024c1.115,0.729,2.28,1.387,3.501,1.921
			c0.004,0.002,0.005,0.002,0.009,0.004c0.143,0.059,0.287,0.114,0.432,0.167c0.289,0.106,0.579,0.211,0.872,0.304
			c0.58,0.186,1.167,0.352,1.763,0.481c0.108,0.023,0.218,0.041,0.326,0.063c0-0.056,0-0.112,0-0.169c0-6.27,0-12.538,0-18.808
			c0-3.397,0-6.795,0-10.192c-7.231,0-14.462,0-21.694,0c-0.885,0-1.77,0-2.654,0c0.375,1.062,0.764,2.117,1.178,3.164
			c0.206,0.521,0.415,1.04,0.63,1.557c0.019,0.046,0.026,0.062,0.039,0.094c0.01,0.023,0.014,0.032,0.027,0.062
			c0.093,0.215,0.185,0.433,0.281,0.647C155.208,229.414,155.591,230.257,155.992,231.092z"/>
		<path fill="none" stroke="#FFFFFF" stroke-miterlimit="10" d="M204.114,128.9c-1.544-3.215-3.295-6.345-5.354-9.261
			c-0.269-0.379-0.539-0.756-0.817-1.129c-0.106-0.143-0.214-0.286-0.321-0.427c-0.016-0.019-0.021-0.026-0.043-0.053
			c-0.475-0.598-0.958-1.187-1.462-1.761c-0.999-1.136-2.053-2.227-3.182-3.236c-0.514-0.46-1.044-0.904-1.588-1.331
			c-0.162-0.122-0.384-0.288-0.467-0.348c-0.271-0.192-0.542-0.381-0.82-0.564c-1.113-0.734-2.278-1.399-3.498-1.943
			c-0.046-0.021-0.064-0.029-0.096-0.043c-0.111-0.044-0.223-0.089-0.334-0.132c-0.287-0.108-0.578-0.215-0.87-0.312
			c-0.577-0.19-1.164-0.361-1.758-0.499c-0.156-0.037-0.313-0.064-0.47-0.097c0,0.092,0,0.185,0,0.277c0,6.27,0,12.538,0,18.808
			c0,3.517,0,7.035,0,10.552c7.231,0,14.463,0,21.696,0c0.943,0,1.888,0,2.831,0c-0.449-1.298-0.914-2.591-1.422-3.868
			c-0.176-0.442-0.354-0.884-0.536-1.324c-0.029-0.071-0.044-0.107-0.06-0.144c-0.001-0.003-0.001-0.004-0.003-0.007
			c-0.092-0.217-0.183-0.431-0.278-0.646C204.895,130.568,204.514,129.73,204.114,128.9z"/>
		<path fill="none" stroke="#FFFFFF" stroke-miterlimit="10" d="M152.348,137.401c6.234,0,12.468,0,18.703,0
			c1.992,0,3.984,0,5.976,0c0-7.842,0-15.683,0-23.525c0-2.046,0-4.093,0-6.14c-1.156,0.235-2.295,0.557-3.393,0.991
			c-0.048,0.019-0.124,0.05-0.2,0.083c-0.077,0.034-0.154,0.067-0.229,0.102c-0.286,0.132-0.57,0.268-0.851,0.412
			c-0.57,0.292-1.132,0.603-1.679,0.939c-0.609,0.375-1.204,0.769-1.782,1.19c-0.126,0.092-0.252,0.185-0.376,0.279
			c-0.253,0.201-0.506,0.405-0.755,0.616c-1.135,0.963-2.213,1.995-3.222,3.092c-0.551,0.598-1.089,1.211-1.606,1.842
			c-0.207,0.251-0.409,0.505-0.61,0.76c-0.137,0.18-0.403,0.528-0.475,0.627c-2.084,2.834-3.891,5.868-5.46,9.016
			c-0.44,0.88-0.866,1.77-1.272,2.667c-0.19,0.424-0.38,0.847-0.564,1.274c-0.062,0.145-0.124,0.29-0.186,0.435
			c-0.048,0.115-0.13,0.312-0.152,0.367C153.545,134.065,152.926,135.726,152.348,137.401z"/>
		<path fill="none" stroke="#FFFFFF" stroke-miterlimit="10" d="M177.027,217.034c0-4.441,0-8.883,0-13.324
			c0-6.828,0-13.657,0-20.485c-2.432,0-4.863,0-7.295,0c-7.977,0-15.954,0-23.931,0c0.083,3.607,0.286,7.212,0.632,10.803
			c0.122,1.257,0.256,2.513,0.411,3.765c0.034,0.286,0.07,0.573,0.107,0.86c0.004,0.031,0.048,0.355,0.066,0.499
			c0.072,0.513,0.143,1.025,0.22,1.538c0.346,2.307,0.743,4.605,1.208,6.891c0.648,3.179,1.41,6.336,2.309,9.454
			c6.766,0,13.531,0,20.297,0C173.043,217.034,175.036,217.034,177.027,217.034z"/>
		<path fill="none" stroke="#FFFFFF" stroke-miterlimit="10" d="M240.001,143.407c-6.573,0-13.142,0-19.713,0c-1.53,0-3.06,0-4.59,0
			c2.951,11.001,4.27,22.488,4.44,33.812c0.725,0,1.45,0,2.176,0c7.951,0,15.901,0,23.852,0c2.084,0,4.168,0,6.251,0
			c-0.08-2.27-0.254-4.537-0.54-6.79c-0.013-0.102-0.026-0.204-0.039-0.306c-0.004-0.024-0.006-0.036-0.01-0.066
			c-0.034-0.232-0.066-0.465-0.103-0.698c-0.07-0.464-0.146-0.929-0.225-1.392c-0.157-0.922-0.331-1.842-0.523-2.756
			c-0.399-1.892-0.864-3.77-1.407-5.626c-0.538-1.838-1.141-3.657-1.82-5.449c-0.188-0.499-0.38-0.997-0.579-1.492
			c-0.085-0.212-0.169-0.424-0.258-0.634c-0.016-0.037-0.053-0.125-0.091-0.213c-0.349-0.807-0.704-1.609-1.079-2.405
			c-0.963-2.041-2.023-4.036-3.163-5.984C241.722,143.407,240.86,143.407,240.001,143.407z"/>
		<path fill="none" stroke="#FFFFFF" stroke-miterlimit="10" d="M207.228,223.041c-6.071,0-12.143,0-18.215,0
			c-1.992,0-3.985,0-5.978,0c0,7.723,0,15.445,0,23.165c0,1.992,0,3.982,0,5.974c1.142-0.248,2.26-0.593,3.339-1.033
			c0.206-0.093,0.508-0.228,0.617-0.281c0.286-0.14,0.568-0.282,0.85-0.434c0.568-0.307,1.129-0.632,1.672-0.982
			c0.594-0.382,1.171-0.783,1.732-1.209c0.126-0.101,0.25-0.2,0.375-0.302c0.269-0.221,0.534-0.444,0.794-0.674
			c1.133-0.998,2.205-2.066,3.209-3.194c0.549-0.616,1.083-1.249,1.597-1.896c0.069-0.087,0.138-0.174,0.206-0.261
			c0.06-0.078,0.13-0.171,0.164-0.217c0.237-0.32,0.477-0.641,0.708-0.965c2.071-2.912,3.867-6.016,5.423-9.229
			c0.438-0.899,0.859-1.807,1.263-2.723c0.096-0.214,0.189-0.429,0.282-0.646c0.021-0.05,0.091-0.216,0.14-0.332
			c0.16-0.381,0.319-0.765,0.472-1.148C206.354,225.459,206.798,224.253,207.228,223.041z"/>
		<path fill="none" stroke="#FFFFFF" stroke-miterlimit="10" d="M203.669,183.225c-6.878,0-13.756,0-20.634,0
			c0,2.361,0,4.724,0,7.085c0,8.908,0,17.816,0,26.725c7.231,0,14.463,0,21.696,0c1.473,0,2.946,0,4.419,0
			c0.849-2.942,1.589-5.916,2.207-8.916c0.47-2.278,0.884-4.566,1.233-6.867c0.101-0.656,0.196-1.314,0.289-1.974
			c0.007-0.051,0.013-0.091,0.018-0.128c0.007-0.05,0.015-0.115,0.027-0.212c0.038-0.285,0.073-0.571,0.109-0.857
			c0.141-1.152,0.274-2.311,0.388-3.467c0.373-3.787,0.602-7.586,0.691-11.389C210.632,183.225,207.15,183.225,203.669,183.225z"/>
		<path fill="none" stroke="#FFFFFF" stroke-miterlimit="10" d="M156.333,177.219c6.898,0,13.796,0,20.695,0
			c0-2.482,0-4.964,0-7.446c0-8.788,0-17.577,0-26.366c-7.231,0-14.462,0-21.694,0c-1.621,0-3.241,0-4.861,0
			c-0.678,2.409-1.285,4.838-1.804,7.286c-0.478,2.254-0.901,4.52-1.26,6.796c-0.102,0.653-0.202,1.304-0.296,1.957
			c-0.033,0.237-0.066,0.474-0.099,0.711c-0.021,0.154-0.059,0.44-0.063,0.471c-0.146,1.146-0.283,2.294-0.401,3.443
			c-0.45,4.368-0.702,8.757-0.768,13.149C149.299,177.219,152.816,177.219,156.333,177.219z"/>
		<path fill="none" stroke="#FFFFFF" stroke-miterlimit="10" d="M238.312,223.041c-6.009,0-12.016,0-18.023,0
			c-2.237,0-4.474,0-6.71,0c-2.218,6.658-5.066,13.197-8.94,19.044c-1.899,2.866-4.075,5.654-6.559,8.107
			c2.243-0.577,4.463-1.244,6.642-2.031c0.932-0.337,1.86-0.688,2.778-1.062c0.2-0.083,0.401-0.164,0.602-0.248
			c0.035-0.015,0.078-0.033,0.154-0.066c0.418-0.181,0.836-0.363,1.25-0.552c1.724-0.782,3.422-1.621,5.08-2.53
			c3.3-1.809,6.473-3.851,9.466-6.129c0.083-0.062,0.166-0.126,0.249-0.189c0.014-0.011,0.019-0.015,0.035-0.027
			c0.177-0.14,0.354-0.279,0.53-0.419c0.352-0.281,0.702-0.565,1.048-0.851c0.691-0.574,1.377-1.158,2.049-1.756
			c1.397-1.246,2.755-2.536,4.06-3.884c1.304-1.345,2.562-2.733,3.762-4.171c0.336-0.403,0.67-0.809,0.997-1.219
			c0.142-0.176,0.283-0.353,0.42-0.528c0.029-0.036,0.104-0.133,0.171-0.218C237.69,223.894,238,223.466,238.312,223.041z"/>
		<path fill="none" stroke="#FFFFFF" stroke-miterlimit="10" d="M252.001,183.225c-6.27,0-12.539,0-18.806,0
			c-4.358,0-8.716,0-13.074,0c-0.074,3.217-0.244,6.43-0.528,9.636c-0.721,8.146-2.031,16.277-4.189,24.174
			c5.417,0,10.834,0,16.251,0c3.546,0,7.09,0,10.636,0c0.865-1.451,1.688-2.928,2.451-4.436c0.444-0.879,0.877-1.763,1.286-2.659
			c0.189-0.414,0.375-0.829,0.559-1.247c0.077-0.179,0.154-0.358,0.231-0.538c0.037-0.089,0.075-0.178,0.09-0.214
			c0.725-1.768,1.39-3.559,1.978-5.376c1.192-3.683,2.117-7.454,2.729-11.278c0.083-0.521,0.163-1.047,0.235-1.572
			c0.011-0.083,0.021-0.159,0.025-0.193c0.03-0.234,0.06-0.47,0.086-0.704c0.109-0.944,0.203-1.891,0.276-2.838
			c0.071-0.917,0.121-1.835,0.16-2.754C252.265,183.225,252.133,183.225,252.001,183.225z"/>
		<path fill="none" stroke="#FFFFFF" stroke-miterlimit="10" d="M209.303,125.87c1.783,3.74,3.3,7.597,4.6,11.531
			c5.918,0,11.835,0,17.752,0c2.342,0,4.683,0,7.023,0c-0.061-0.084-0.116-0.171-0.178-0.255c-0.263-0.363-0.53-0.726-0.803-1.086
			c-0.115-0.152-0.23-0.304-0.347-0.455c-0.059-0.076-0.119-0.153-0.144-0.184c-1.163-1.472-2.371-2.904-3.64-4.285
			c-2.531-2.76-5.258-5.345-8.17-7.703c-0.362-0.291-0.726-0.58-1.091-0.866c-0.092-0.071-0.208-0.161-0.249-0.191
			c-0.179-0.137-0.361-0.271-0.541-0.406c-0.723-0.538-1.453-1.065-2.196-1.576c-1.551-1.068-3.135-2.084-4.761-3.033
			c-1.632-0.951-3.294-1.851-4.99-2.677c-0.888-0.432-1.779-0.85-2.684-1.247c-0.209-0.09-0.417-0.183-0.627-0.272
			c-0.077-0.033-0.12-0.052-0.155-0.067c-0.413-0.17-0.822-0.339-1.237-0.501c-2.806-1.102-5.679-2.038-8.596-2.798
			C202.945,114.354,206.602,120.204,209.303,125.87z"/>
		<path fill="none" stroke="#FFFFFF" stroke-miterlimit="10" d="M159.673,247.896c-4.954-5.725-8.527-12.424-11.337-19.421
			c-0.719-1.79-1.376-3.604-1.991-5.434c-5.979,0-11.958,0-17.937,0c-2.267,0-4.534,0-6.801,0c0.163,0.222,0.317,0.45,0.482,0.67
			c0.136,0.179,0.271,0.359,0.408,0.538c0.015,0.02,0.018,0.023,0.03,0.04c0.018,0.022,0.025,0.032,0.05,0.063
			c0.279,0.354,0.557,0.707,0.842,1.056c2.365,2.905,4.933,5.646,7.702,8.171c1.385,1.263,2.81,2.482,4.284,3.639
			c0.108,0.085,0.214,0.169,0.321,0.252c0.166,0.125,0.331,0.252,0.498,0.376c0.361,0.27,0.724,0.537,1.089,0.801
			c0.73,0.526,1.469,1.044,2.22,1.543c3.138,2.094,6.425,3.967,9.842,5.567c0.481,0.226,0.964,0.448,1.449,0.663
			c0.209,0.093,0.418,0.185,0.626,0.276c0.051,0.021,0.203,0.085,0.313,0.132c0.781,0.323,1.565,0.64,2.356,0.937
			c1.793,0.673,3.609,1.286,5.449,1.819c0.759,0.221,1.524,0.423,2.29,0.621C161.101,249.459,160.363,248.693,159.673,247.896z"/>
		<path fill="none" stroke="#FFFFFF" stroke-miterlimit="10" d="M135.686,237.438c0.005,0.004,0.011,0.008,0.016,0.012
			C135.458,237.264,135.445,237.253,135.686,237.438z"/>
		<path fill="none" stroke="#FFFFFF" stroke-miterlimit="10" d="M108,177.219c6.269,0,12.538,0,18.807,0c4.321,0,8.643,0,12.964,0
			c0.022-1.431,0.06-2.861,0.124-4.292c0.428-9.593,1.693-19.211,4.082-28.52c0.086-0.334,0.181-0.667,0.27-1.001
			c-5.279,0-10.559,0-15.838,0c-3.669,0-7.34,0-11.009,0c-0.019,0-0.036-0.005-0.055-0.005c-1.524,2.605-2.906,5.294-4.103,8.066
			c-0.049,0.114-0.098,0.229-0.146,0.343c-0.087,0.208-0.172,0.416-0.256,0.623c-0.171,0.425-0.34,0.85-0.503,1.277
			c-0.327,0.855-0.643,1.716-0.938,2.584c-0.62,1.819-1.178,3.66-1.656,5.521c-0.483,1.881-0.902,3.779-1.238,5.69
			c-0.095,0.54-0.186,1.08-0.269,1.621c-0.036,0.233-0.07,0.465-0.104,0.698c-0.007,0.046-0.023,0.166-0.038,0.276
			c-0.116,0.893-0.222,1.788-0.305,2.685c-0.137,1.475-0.219,2.954-0.273,4.434C107.675,177.219,107.838,177.219,108,177.219z"/>
		<path fill="none" stroke="#FFFFFF" stroke-miterlimit="10" d="M117.347,216.573c0.091,0.155,0.189,0.307,0.282,0.461
			c0.811,0,1.623,0,2.436,0c6.57,0,13.141,0,19.711,0c1.581,0,3.163,0,4.744,0c-1.25-4.573-2.223-9.225-2.945-13.903
			c-1.017-6.592-1.61-13.242-1.773-19.906c-0.705,0-1.41,0-2.116,0c-7.951,0-15.9,0-23.85,0c-2.103,0-4.204,0-6.305,0
			c0.022,0.521,0.035,1.041,0.069,1.562c0.066,1.03,0.148,2.061,0.257,3.087c0.048,0.472,0.1,0.941,0.159,1.411
			c0.019,0.156,0.04,0.312,0.06,0.468c0.018,0.124,0.043,0.311,0.053,0.371c0.282,1.931,0.632,3.851,1.064,5.753
			c0.852,3.747,1.975,7.431,3.39,11.004c0.18,0.453,0.363,0.904,0.552,1.354c0.042,0.099,0.088,0.206,0.105,0.247
			c0.092,0.21,0.182,0.418,0.274,0.627c0.371,0.831,0.753,1.655,1.155,2.474C115.501,213.277,116.39,214.946,117.347,216.573z"/>
		<path fill="none" stroke="#FFFFFF" stroke-miterlimit="10" d="M139.776,137.401c2.079,0,4.158,0,6.237,0
			c1.782-5.489,4.007-10.849,6.845-15.853c2.313-4.079,5.298-8.275,8.869-11.774c-1.836,0.478-3.655,1.019-5.447,1.635
			c-0.939,0.323-1.873,0.66-2.798,1.021c-0.428,0.165-0.853,0.334-1.274,0.507c-0.15,0.062-0.299,0.124-0.448,0.186
			c-0.11,0.047-0.256,0.109-0.306,0.131c-3.464,1.51-6.825,3.266-10.024,5.278c-1.591,1-3.149,2.052-4.661,3.168
			c-0.389,0.287-0.776,0.577-1.159,0.872c-0.082,0.063-0.17,0.132-0.204,0.159c-0.175,0.139-0.353,0.279-0.529,0.42
			c-0.699,0.564-1.394,1.137-2.075,1.726c-2.832,2.449-5.497,5.097-7.938,7.939c-0.636,0.739-1.26,1.487-1.866,2.25
			c-0.14,0.177-0.28,0.354-0.419,0.531c-0.025,0.033-0.034,0.043-0.052,0.066c-0.012,0.016-0.014,0.019-0.028,0.038
			c-0.272,0.358-0.543,0.717-0.81,1.081c-0.149,0.204-0.29,0.414-0.438,0.619C127.426,137.401,133.601,137.401,139.776,137.401z"/>
		<path fill="#2869A2" stroke="#FFFFFF" stroke-miterlimit="10" d="M258.521,180.222c0-0.148-0.023-0.291-0.045-0.435
			c-0.062-15.784-4.878-31.403-13.877-44.387c-8.943-12.903-21.559-22.817-36.138-28.595c-8.738-3.463-18.112-5.212-27.508-5.32
			c-0.993-0.061-1.97-0.058-2.927,0.019c-5.703,0.143-11.391,0.881-16.924,2.23c-15.053,3.669-28.901,12.022-39.298,23.486
			c-10.488,11.566-17.445,26.23-19.569,41.709c-0.506,3.69-0.742,7.396-0.735,11.091c-0.004,0.068-0.021,0.132-0.021,0.201
			c0,0.063,0.015,0.123,0.019,0.185c0.084,12.341,3.008,24.551,8.695,35.629c7.026,13.688,18.271,25.169,31.706,32.638
			c11.427,6.353,24.429,9.712,37.48,9.812c0.211,0.048,0.428,0.078,0.651,0.078c0.237,0,0.465-0.036,0.687-0.09
			c2.461-0.023,4.923-0.148,7.375-0.407c15.854-1.674,30.783-8.136,42.931-18.451c11.795-10.016,20.421-23.655,24.59-38.542
			c1.845-6.591,2.775-13.473,2.853-20.318C258.498,180.581,258.521,180.403,258.521,180.222z M246.822,151.796
			c0.038,0.088,0.075,0.176,0.091,0.213c0.089,0.209,0.173,0.421,0.258,0.634c0.199,0.496,0.392,0.994,0.579,1.492
			c0.68,1.792,1.282,3.611,1.82,5.449c0.543,1.856,1.008,3.734,1.407,5.626c0.192,0.915,0.366,1.834,0.523,2.756
			c0.079,0.462,0.154,0.927,0.225,1.392c0.036,0.233,0.068,0.466,0.103,0.698c0.004,0.031,0.006,0.042,0.01,0.066
			c0.013,0.102,0.026,0.204,0.039,0.306c0.286,2.253,0.46,4.521,0.54,6.79c-2.083,0-4.167,0-6.251,0c-7.95,0-15.9,0-23.852,0
			c-0.726,0-1.451,0-2.176,0c-0.171-11.324-1.489-22.811-4.44-33.812c1.53,0,3.06,0,4.59,0c6.571,0,13.14,0,19.713,0
			c0.859,0,1.721,0,2.579,0c1.14,1.949,2.2,3.943,3.163,5.984C246.118,150.187,246.474,150.989,246.822,151.796z M213.034,198.08
			c-0.036,0.286-0.071,0.572-0.109,0.857c-0.013,0.097-0.021,0.162-0.027,0.212c-0.005,0.037-0.011,0.077-0.018,0.128
			c-0.093,0.659-0.188,1.317-0.289,1.974c-0.35,2.301-0.764,4.589-1.233,6.867c-0.618,3-1.358,5.974-2.207,8.916
			c-1.473,0-2.946,0-4.419,0c-7.233,0-14.465,0-21.696,0c0-8.908,0-17.816,0-26.725c0-2.361,0-4.724,0-7.085
			c6.878,0,13.756,0,20.634,0c3.481,0,6.963,0,10.444,0c-0.09,3.803-0.318,7.602-0.691,11.389
			C213.309,195.77,213.175,196.928,213.034,198.08z M205.405,227.802c-0.049,0.116-0.118,0.282-0.14,0.332
			c-0.093,0.217-0.187,0.432-0.282,0.646c-0.403,0.916-0.824,1.823-1.263,2.723c-1.556,3.214-3.352,6.317-5.423,9.229
			c-0.231,0.324-0.471,0.645-0.708,0.965c-0.034,0.046-0.104,0.139-0.164,0.217c-0.068,0.087-0.137,0.174-0.206,0.261
			c-0.514,0.647-1.048,1.28-1.597,1.896c-1.004,1.128-2.076,2.196-3.209,3.194c-0.26,0.229-0.525,0.453-0.794,0.674
			c-0.125,0.102-0.249,0.201-0.375,0.302c-0.562,0.426-1.139,0.827-1.732,1.209c-0.543,0.351-1.104,0.676-1.672,0.982
			c-0.281,0.151-0.563,0.294-0.85,0.434c-0.109,0.054-0.411,0.188-0.617,0.281c-1.079,0.44-2.197,0.785-3.339,1.033
			c0-1.991,0-3.981,0-5.974c0-7.72,0-15.442,0-23.165c1.992,0,3.985,0,5.978,0c6.072,0,12.144,0,18.215,0
			c-0.43,1.212-0.874,2.418-1.351,3.612C205.725,227.037,205.565,227.421,205.405,227.802z M154.553,227.918
			c-0.013-0.03-0.017-0.039-0.027-0.062c-0.013-0.031-0.02-0.048-0.039-0.094c-0.215-0.517-0.424-1.036-0.63-1.557
			c-0.414-1.047-0.803-2.103-1.178-3.164c0.884,0,1.769,0,2.654,0c7.231,0,14.462,0,21.694,0c0,3.397,0,6.795,0,10.192
			c0,6.27,0,12.538,0,18.808c0,0.057,0,0.113,0,0.169c-0.108-0.022-0.218-0.04-0.326-0.063c-0.595-0.13-1.183-0.296-1.763-0.481
			c-0.292-0.093-0.583-0.197-0.872-0.304c-0.146-0.053-0.289-0.108-0.432-0.167c-0.004-0.002-0.005-0.002-0.009-0.004
			c-1.222-0.534-2.386-1.191-3.501-1.921c-0.493-0.321-0.968-0.67-1.439-1.024c-0.161-0.127-0.435-0.343-0.523-0.417
			c-0.313-0.258-0.62-0.526-0.925-0.797c-1.133-1.01-2.19-2.104-3.194-3.242c-0.507-0.576-0.994-1.167-1.471-1.769
			c-0.021-0.026-0.055-0.069-0.09-0.115c-0.093-0.123-0.185-0.246-0.277-0.369c-0.28-0.374-0.552-0.753-0.821-1.134
			c-2.072-2.933-3.834-6.078-5.391-9.311c-0.401-0.835-0.784-1.678-1.158-2.526C154.738,228.351,154.646,228.133,154.553,227.918z
			 M148.445,207.58c-0.465-2.285-0.863-4.584-1.208-6.891c-0.077-0.513-0.148-1.025-0.22-1.538
			c-0.019-0.144-0.062-0.468-0.066-0.499c-0.037-0.287-0.073-0.574-0.107-0.86c-0.155-1.252-0.289-2.508-0.411-3.765
			c-0.346-3.591-0.548-7.195-0.632-10.803c7.977,0,15.955,0,23.931,0c2.432,0,4.863,0,7.295,0c0,6.828,0,13.657,0,20.485
			c0,4.441,0,8.883,0,13.324c-1.992,0-3.984,0-5.976,0c-6.767,0-13.532,0-20.297,0C149.855,213.916,149.093,210.759,148.445,207.58z
			 M146.951,160.626c0.004-0.031,0.042-0.317,0.063-0.471c0.033-0.237,0.066-0.474,0.099-0.711c0.094-0.653,0.194-1.304,0.296-1.957
			c0.359-2.276,0.782-4.542,1.26-6.796c0.519-2.448,1.126-4.877,1.804-7.286c1.621,0,3.241,0,4.861,0c7.231,0,14.462,0,21.694,0
			c0,8.789,0,17.578,0,26.366c0,2.482,0,4.964,0,7.446c-6.898,0-13.797,0-20.695,0c-3.517,0-7.034,0-10.55,0
			c0.066-4.392,0.317-8.781,0.768-13.149C146.668,162.92,146.805,161.772,146.951,160.626z M154.368,132.06
			c0.062-0.145,0.124-0.291,0.186-0.435c0.184-0.427,0.374-0.85,0.564-1.274c0.406-0.897,0.833-1.787,1.272-2.667
			c1.569-3.148,3.376-6.182,5.46-9.016c0.072-0.099,0.338-0.447,0.475-0.627c0.201-0.255,0.403-0.509,0.61-0.76
			c0.517-0.63,1.055-1.244,1.606-1.842c1.009-1.097,2.086-2.128,3.222-3.092c0.249-0.21,0.501-0.415,0.755-0.616
			c0.125-0.094,0.25-0.187,0.376-0.279c0.578-0.421,1.173-0.815,1.782-1.19c0.546-0.336,1.108-0.646,1.679-0.939
			c0.281-0.144,0.565-0.28,0.851-0.412c0.075-0.035,0.152-0.068,0.229-0.102c0.076-0.032,0.152-0.063,0.2-0.083
			c1.097-0.434,2.237-0.756,3.393-0.991c0,2.047,0,4.094,0,6.14c0,7.842,0,15.683,0,23.525c-1.992,0-3.984,0-5.976,0
			c-6.235,0-12.469,0-18.703,0c0.578-1.675,1.197-3.335,1.868-4.975C154.238,132.371,154.32,132.174,154.368,132.06z
			 M205.542,132.057c0.002,0.003,0.002,0.004,0.003,0.007c0.016,0.037,0.03,0.073,0.06,0.144c0.183,0.44,0.36,0.882,0.536,1.324
			c0.508,1.277,0.973,2.57,1.422,3.868c-0.943,0-1.888,0-2.831,0c-7.233,0-14.465,0-21.696,0c0-3.517,0-7.035,0-10.552
			c0-6.27,0-12.538,0-18.808c0-0.092,0-0.185,0-0.277c0.156,0.033,0.313,0.061,0.47,0.097c0.594,0.137,1.181,0.308,1.758,0.499
			c0.292,0.097,0.583,0.204,0.87,0.312c0.111,0.043,0.223,0.088,0.334,0.132c0.031,0.014,0.05,0.023,0.096,0.043
			c1.22,0.543,2.385,1.208,3.498,1.943c0.278,0.183,0.55,0.372,0.82,0.564c0.083,0.06,0.305,0.226,0.467,0.348
			c0.544,0.427,1.074,0.871,1.588,1.331c1.129,1.009,2.183,2.1,3.182,3.236c0.504,0.574,0.987,1.163,1.462,1.761
			c0.021,0.027,0.027,0.034,0.043,0.053c0.107,0.141,0.215,0.284,0.321,0.427c0.278,0.373,0.549,0.75,0.817,1.129
			c2.059,2.917,3.81,6.046,5.354,9.261c0.399,0.83,0.78,1.668,1.149,2.511C205.359,131.626,205.45,131.84,205.542,132.057z
			 M211.465,151.759c0.446,2.178,0.83,4.369,1.167,6.566c0.088,0.561,0.167,1.123,0.246,1.684c0.023,0.166,0.035,0.25,0.041,0.288
			c0.002,0.016,0.004,0.027,0.006,0.044c0.036,0.286,0.071,0.57,0.107,0.854c0.158,1.245,0.293,2.493,0.417,3.743
			c0.406,4.082,0.617,8.18,0.681,12.279c-7.954,0-15.907,0-23.86,0c-2.411,0-4.823,0-7.234,0c0-6.949,0-13.897,0-20.846
			c0-4.322,0-8.644,0-12.966c1.992,0,3.985,0,5.978,0c6.81,0,13.619,0,20.428,0C210.215,146.166,210.89,148.953,211.465,151.759z
			 M208.104,113.097c0.035,0.016,0.078,0.034,0.155,0.067c0.21,0.09,0.418,0.182,0.627,0.272c0.904,0.396,1.796,0.814,2.684,1.247
			c1.696,0.827,3.358,1.726,4.99,2.677c1.626,0.949,3.21,1.965,4.761,3.033c0.743,0.511,1.474,1.038,2.196,1.576
			c0.18,0.135,0.362,0.269,0.541,0.406c0.041,0.031,0.157,0.121,0.249,0.191c0.365,0.286,0.729,0.575,1.091,0.866
			c2.912,2.357,5.639,4.942,8.17,7.703c1.269,1.381,2.477,2.813,3.64,4.285c0.024,0.031,0.085,0.108,0.144,0.184
			c0.116,0.151,0.231,0.303,0.347,0.455c0.272,0.36,0.54,0.723,0.803,1.086c0.062,0.084,0.117,0.171,0.178,0.255
			c-2.341,0-4.682,0-7.023,0c-5.917,0-11.834,0-17.752,0c-1.3-3.934-2.816-7.791-4.6-11.531
			c-2.701-5.666-6.357-11.516-11.032-16.073c2.917,0.761,5.79,1.696,8.596,2.798C207.281,112.758,207.69,112.927,208.104,113.097z
			 M122.499,135.701c0.014-0.019,0.017-0.022,0.028-0.038c0.019-0.023,0.027-0.034,0.052-0.066c0.139-0.178,0.279-0.354,0.419-0.531
			c0.606-0.764,1.23-1.512,1.866-2.25c2.442-2.842,5.106-5.49,7.938-7.939c0.681-0.589,1.375-1.162,2.075-1.726
			c0.176-0.141,0.354-0.281,0.529-0.42c0.034-0.027,0.122-0.095,0.204-0.159c0.383-0.294,0.771-0.584,1.159-0.872
			c1.512-1.116,3.069-2.168,4.661-3.168c3.199-2.012,6.56-3.768,10.024-5.278c0.05-0.022,0.196-0.084,0.306-0.131
			c0.149-0.062,0.298-0.124,0.448-0.186c0.421-0.172,0.846-0.342,1.274-0.507c0.925-0.361,1.859-0.698,2.798-1.021
			c1.792-0.616,3.611-1.157,5.447-1.635c-3.571,3.499-6.556,7.696-8.869,11.774c-2.838,5.004-5.063,10.364-6.845,15.853
			c-2.079,0-4.158,0-6.237,0c-6.175,0-12.351,0-18.525,0c0.148-0.205,0.289-0.415,0.438-0.619
			C121.955,136.418,122.226,136.06,122.499,135.701z M108.091,170.101c0.015-0.11,0.031-0.229,0.038-0.276
			c0.034-0.232,0.068-0.464,0.104-0.698c0.083-0.542,0.174-1.082,0.269-1.621c0.336-1.912,0.755-3.809,1.238-5.69
			c0.478-1.861,1.037-3.702,1.656-5.521c0.296-0.868,0.611-1.729,0.938-2.584c0.164-0.427,0.332-0.852,0.503-1.277
			c0.083-0.207,0.169-0.415,0.256-0.623c0.048-0.114,0.097-0.229,0.146-0.343c1.197-2.772,2.579-5.461,4.103-8.066
			c0.019,0,0.036,0.005,0.055,0.005c3.669,0,7.34,0,11.009,0c5.28,0,10.559,0,15.838,0c-0.089,0.334-0.184,0.667-0.27,1.001
			c-2.389,9.308-3.654,18.927-4.082,28.52c-0.064,1.43-0.101,2.861-0.124,4.292c-4.321,0-8.643,0-12.964,0
			c-6.27,0-12.538,0-18.807,0c-0.162,0-0.325,0-0.487,0c0.054-1.48,0.136-2.959,0.273-4.434
			C107.87,171.889,107.976,170.994,108.091,170.101z M113.24,208.481c-0.018-0.041-0.063-0.148-0.105-0.247
			c-0.188-0.45-0.372-0.901-0.552-1.354c-1.416-3.573-2.539-7.257-3.39-11.004c-0.432-1.902-0.782-3.822-1.064-5.753
			c-0.009-0.061-0.035-0.247-0.053-0.371c-0.02-0.155-0.041-0.312-0.06-0.468c-0.059-0.47-0.111-0.939-0.159-1.411
			c-0.109-1.026-0.191-2.057-0.257-3.087c-0.034-0.521-0.046-1.041-0.069-1.562c2.102,0,4.203,0,6.305,0c7.95,0,15.899,0,23.85,0
			c0.706,0,1.411,0,2.116,0c0.163,6.664,0.756,13.314,1.773,19.906c0.722,4.679,1.695,9.33,2.945,13.903c-1.581,0-3.163,0-4.744,0
			c-6.571,0-13.142,0-19.711,0c-0.813,0-1.625,0-2.436,0c-0.092-0.154-0.19-0.306-0.282-0.461c-0.957-1.627-1.846-3.296-2.678-4.991
			c-0.401-0.818-0.784-1.643-1.155-2.474C113.422,208.899,113.332,208.691,113.24,208.481z M135.701,237.45
			c-0.005-0.004-0.01-0.008-0.016-0.012C135.445,237.253,135.458,237.264,135.701,237.45z M154.121,247.765
			c-0.792-0.297-1.575-0.613-2.356-0.937c-0.11-0.047-0.262-0.11-0.313-0.132c-0.208-0.092-0.417-0.184-0.626-0.276
			c-0.485-0.215-0.968-0.438-1.449-0.663c-3.417-1.601-6.704-3.474-9.842-5.567c-0.751-0.499-1.49-1.017-2.22-1.543
			c-0.366-0.264-0.728-0.531-1.089-0.801c-0.167-0.124-0.332-0.251-0.498-0.376c-0.107-0.083-0.213-0.167-0.321-0.252
			c-1.475-1.156-2.899-2.376-4.284-3.639c-2.769-2.524-5.337-5.266-7.702-8.171c-0.285-0.349-0.563-0.702-0.842-1.056
			c-0.025-0.031-0.032-0.041-0.05-0.063c-0.012-0.017-0.015-0.021-0.03-0.04c-0.137-0.179-0.271-0.359-0.408-0.538
			c-0.165-0.22-0.319-0.448-0.482-0.67c2.267,0,4.535,0,6.801,0c5.979,0,11.958,0,17.937,0c0.615,1.829,1.271,3.644,1.991,5.434
			c2.81,6.997,6.383,13.696,11.337,19.421c0.69,0.798,1.427,1.563,2.187,2.31c-0.766-0.198-1.531-0.4-2.29-0.621
			C157.73,249.051,155.915,248.438,154.121,247.765z M236.78,225.059c-0.327,0.41-0.661,0.815-0.997,1.219
			c-1.2,1.438-2.458,2.826-3.762,4.171c-1.305,1.348-2.662,2.638-4.06,3.884c-0.672,0.598-1.357,1.182-2.049,1.756
			c-0.346,0.285-0.696,0.569-1.048,0.851c-0.177,0.14-0.354,0.279-0.53,0.419c-0.017,0.013-0.021,0.017-0.035,0.027
			c-0.083,0.063-0.166,0.127-0.249,0.189c-2.993,2.278-6.166,4.32-9.466,6.129c-1.658,0.909-3.356,1.748-5.08,2.53
			c-0.414,0.188-0.832,0.371-1.25,0.552c-0.076,0.033-0.119,0.052-0.154,0.066c-0.2,0.084-0.401,0.165-0.602,0.248
			c-0.918,0.373-1.847,0.725-2.778,1.062c-2.179,0.787-4.398,1.454-6.642,2.031c2.483-2.453,4.659-5.241,6.559-8.107
			c3.874-5.847,6.723-12.386,8.94-19.044c2.236,0,4.473,0,6.71,0c6.008,0,12.015,0,18.023,0c-0.312,0.425-0.621,0.853-0.94,1.271
			c-0.066,0.085-0.142,0.182-0.171,0.218C237.063,224.706,236.922,224.883,236.78,225.059z M251.96,188.816
			c-0.026,0.234-0.056,0.47-0.086,0.704c-0.004,0.034-0.015,0.11-0.025,0.193c-0.072,0.525-0.152,1.051-0.235,1.572
			c-0.611,3.824-1.536,7.596-2.729,11.278c-0.588,1.817-1.253,3.608-1.978,5.376c-0.015,0.036-0.053,0.125-0.09,0.214
			c-0.077,0.18-0.154,0.359-0.231,0.538c-0.184,0.418-0.369,0.833-0.559,1.247c-0.409,0.896-0.842,1.78-1.286,2.659
			c-0.763,1.508-1.586,2.984-2.451,4.436c-3.546,0-7.09,0-10.636,0c-5.417,0-10.834,0-16.251,0
			c2.158-7.896,3.469-16.028,4.189-24.174c0.284-3.206,0.454-6.419,0.528-9.636c4.358,0,8.716,0,13.074,0c6.267,0,12.536,0,18.806,0
			c0.132,0,0.264,0,0.396,0c-0.039,0.919-0.089,1.837-0.16,2.754C252.163,186.926,252.069,187.872,251.96,188.816z"/>
	</g>
</g>
<g id="Layer_2">
</g>
</svg>
